<svg width="50" height="94" viewBox="0 0 50 94" fill="none" xmlns="http://www.w3.org/2000/svg">
<g clip-path="url(#clip0_1_1317)">
<path d="M8.33333 5.5C8.33333 2.4664 10.8246 0 13.8889 0H36.1111C39.1754 0 41.6667 2.4664 41.6667 5.5V38.5H47.2222C48.7587 38.5 50 39.7289 50 41.25C50 42.7711 48.7587 44 47.2222 44H37.5H12.5H2.77778C1.24132 44 0 42.7711 0 41.25C0 39.7289 1.24132 38.5 2.77778 38.5H8.33333V5.5ZM33.3333 24.75C34.07 24.75 34.7766 24.4603 35.2975 23.9445C35.8185 23.4289 36.1111 22.7293 36.1111 22C36.1111 21.2707 35.8185 20.5711 35.2975 20.0555C34.7766 19.5397 34.07 19.25 33.3333 19.25C32.5966 19.25 31.89 19.5397 31.3692 20.0555C30.8482 20.5711 30.5556 21.2707 30.5556 22C30.5556 22.7293 30.8482 23.4289 31.3692 23.9445C31.89 24.4603 32.5966 24.75 33.3333 24.75Z" fill="#59A52C" style="fill:#59A52C;fill:color(display-p3 0.3490 0.6471 0.1725);fill-opacity:1;"/>
<path d="M8.33333 55.5C8.33333 52.4664 10.8246 50 13.8889 50H36.1111C39.1754 50 41.6667 52.4664 41.6667 55.5V88.5H47.2222C48.7587 88.5 50 89.7289 50 91.25C50 92.7711 48.7587 94 47.2222 94H37.5H12.5H2.77778C1.24132 94 0 92.7711 0 91.25C0 89.7289 1.24132 88.5 2.77778 88.5H8.33333V55.5ZM33.3333 74.75C34.07 74.75 34.7766 74.4603 35.2975 73.9445C35.8185 73.4289 36.1111 72.7293 36.1111 72C36.1111 71.2707 35.8185 70.5711 35.2975 70.0555C34.7766 69.5397 34.07 69.25 33.3333 69.25C32.5966 69.25 31.89 69.5397 31.3692 70.0555C30.8482 70.5711 30.5556 71.2707 30.5556 72C30.5556 72.7293 30.8482 73.4289 31.3692 73.9445C31.89 74.4603 32.5966 74.75 33.3333 74.75Z" fill="#1D1C1C" style="fill:#1D1C1C;fill:color(display-p3 0.1125 0.1116 0.1116);fill-opacity:1;"/>
</g>
<defs>
<clipPath id="clip0_1_1317">
<rect width="50" height="94" fill="white" style="fill:white;fill-opacity:1;"/>
</clipPath>
</defs>
</svg>
