<svg xmlns="http://www.w3.org/2000/svg" version="1.1" xmlns:xlink="http://www.w3.org/1999/xlink" xmlns:svgjs="http://svgjs.com/svgjs" width="512" height="512" x="0" y="0" viewBox="0 0 24 24" style="enable-background:new 0 0 512 512" xml:space="preserve" class=""><g><path d="m12 2.5c-5.24 0-9.5 4.26-9.5 9.5s4.26 9.5 9.5 9.5 9.5-4.26 9.5-9.5-4.26-9.5-9.5-9.5zm2.71 10.21-3 3c-.2.19-.45.29-.71.29s-.51-.1-.71-.29c-.39002-.39-.39002-1.03 0-1.42l2.3-2.29-2.3-2.29004c-.39002-.39-.39002-1.02992 0-1.41992.39-.39 1.03-.39 1.42 0l3 2.99996c.39.39.39 1.03 0 1.42z" fill="#84223b" data-original="#000000" class=""></path></g></svg>