<svg width="50" height="100" viewBox="0 0 50 100" fill="none" xmlns="http://www.w3.org/2000/svg">
<g clip-path="url(#clip0_1_1315)">
<path d="M9.375 57.5488C9.375 56.8359 9.95117 56.25 10.6738 56.25C11.0156 56.25 11.3477 56.3867 11.5918 56.6309L13.0469 58.0859C12.6953 58.9648 12.5 59.9316 12.5 60.9375C12.5 62.8809 13.2031 64.6484 14.375 66.0156C13.8574 66.9141 13.9844 68.0762 14.7461 68.8477C15.6641 69.7656 17.1484 69.7656 18.0566 68.8477L28.2227 58.6914C29.1406 57.7734 29.1406 56.2891 28.2227 55.3809C27.4512 54.6094 26.2891 54.4922 25.3906 55.0098C24.0234 53.8281 22.2559 53.125 20.3125 53.125C19.3066 53.125 18.3398 53.3203 17.4609 53.6621L16.0059 52.207C14.5898 50.791 12.666 50 10.6738 50C6.50391 50 3.125 53.3789 3.125 57.5488V75C1.39648 75 0 76.3965 0 78.125C0 79.8535 1.39648 81.25 3.125 81.25H46.875C48.6035 81.25 50 79.8535 50 78.125C50 76.3965 48.6035 75 46.875 75H9.375V57.5488ZM3.125 84.375V85.9375C3.125 88.7109 4.33594 91.2109 6.25 92.9297V96.875C6.25 98.6035 7.64648 100 9.375 100C11.1035 100 12.5 98.6035 12.5 96.875V95.3125H37.5V96.875C37.5 98.6035 38.8965 100 40.625 100C42.3535 100 43.75 98.6035 43.75 96.875V92.9297C45.6641 91.2109 46.875 88.7207 46.875 85.9375V84.375H3.125Z" fill="#1D1C1C" style="fill:#1D1C1C;fill:color(display-p3 0.1137 0.1098 0.1098);fill-opacity:1;"/>
<path d="M9.375 7.54883C9.375 6.83594 9.95117 6.25 10.6738 6.25C11.0156 6.25 11.3477 6.38672 11.5918 6.63086L13.0469 8.08594C12.6953 8.96484 12.5 9.93164 12.5 10.9375C12.5 12.8809 13.2031 14.6484 14.375 16.0156C13.8574 16.9141 13.9844 18.0762 14.7461 18.8477C15.6641 19.7656 17.1484 19.7656 18.0566 18.8477L28.2227 8.69141C29.1406 7.77344 29.1406 6.28906 28.2227 5.38086C27.4512 4.60938 26.2891 4.49219 25.3906 5.00977C24.0234 3.82812 22.2559 3.125 20.3125 3.125C19.3066 3.125 18.3398 3.32031 17.4609 3.66211L16.0059 2.20703C14.5898 0.791016 12.666 0 10.6738 0C6.50391 0 3.125 3.37891 3.125 7.54883V25C1.39648 25 0 26.3965 0 28.125C0 29.8535 1.39648 31.25 3.125 31.25H46.875C48.6035 31.25 50 29.8535 50 28.125C50 26.3965 48.6035 25 46.875 25H9.375V7.54883ZM3.125 34.375V35.9375C3.125 38.7109 4.33594 41.2109 6.25 42.9297V46.875C6.25 48.6035 7.64648 50 9.375 50C11.1035 50 12.5 48.6035 12.5 46.875V45.3125H37.5V46.875C37.5 48.6035 38.8965 50 40.625 50C42.3535 50 43.75 48.6035 43.75 46.875V42.9297C45.6641 41.2109 46.875 38.7207 46.875 35.9375V34.375H3.125Z" fill="#59A52C" style="fill:#59A52C;fill:color(display-p3 0.3490 0.6471 0.1725);fill-opacity:1;"/>
</g>
<defs>
<clipPath id="clip0_1_1315">
<rect width="50" height="100" fill="white" style="fill:white;fill-opacity:1;"/>
</clipPath>
</defs>
</svg>
