<svg width="50" height="100" viewBox="0 0 50 100" fill="none" xmlns="http://www.w3.org/2000/svg">
<path d="M2.5 57C3.88281 57 5 58.14 5 59.551V79.9592H22.5V67.2041C22.5 65.7931 23.6172 64.6531 25 64.6531H42.5C46.6406 64.6531 50 68.081 50 72.3061V90.1633C50 91.5743 48.8828 92.7143 47.5 92.7143C46.1172 92.7143 45 91.5743 45 90.1633V87.6122H27.5H25H5V90.1633C5 91.5743 3.88281 92.7143 2.5 92.7143C1.11719 92.7143 0 91.5743 0 90.1633V59.551C0 58.14 1.11719 57 2.5 57ZM13.75 64.6531C15.4076 64.6531 16.9973 65.325 18.1694 66.521C19.3415 67.717 20 69.3392 20 71.0306C20 72.7221 19.3415 74.3442 18.1694 75.5402C16.9973 76.7362 15.4076 77.4081 13.75 77.4081C12.0924 77.4081 10.5027 76.7362 9.33058 75.5402C8.1585 74.3442 7.50001 72.7221 7.50001 71.0306C7.50001 69.3392 8.1585 67.717 9.33058 66.521C10.5027 65.325 12.0924 64.6531 13.75 64.6531Z" fill="#1D1C1C" style="fill:#1D1C1C;fill:color(display-p3 0.1137 0.1098 0.1098);fill-opacity:1;"/>
<path d="M2.5 8C3.88281 8 5 9.11719 5 10.5V30.5H22.5V18C22.5 16.6172 23.6172 15.5 25 15.5H42.5C46.6406 15.5 50 18.8594 50 23V40.5C50 41.8828 48.8828 43 47.5 43C46.1172 43 45 41.8828 45 40.5V38H27.5H25H5V40.5C5 41.8828 3.88281 43 2.5 43C1.11719 43 0 41.8828 0 40.5V10.5C0 9.11719 1.11719 8 2.5 8ZM13.75 15.5C15.4076 15.5 16.9973 16.1585 18.1694 17.3306C19.3415 18.5027 20 20.0924 20 21.75C20 23.4076 19.3415 24.9973 18.1694 26.1694C16.9973 27.3415 15.4076 28 13.75 28C12.0924 28 10.5027 27.3415 9.33058 26.1694C8.1585 24.9973 7.50001 23.4076 7.50001 21.75C7.50001 20.0924 8.1585 18.5027 9.33058 17.3306C10.5027 16.1585 12.0924 15.5 13.75 15.5Z" fill="#59A52C" style="fill:#59A52C;fill:color(display-p3 0.3490 0.6471 0.1725);fill-opacity:1;"/>
</svg>
