<svg width="51" height="50" viewBox="0 0 51 50" fill="none" xmlns="http://www.w3.org/2000/svg">
<path d="M11.8047 0.0319796C8.89264 0.367604 7.15528 3.50669 8.3892 6.19169C9.10981 7.76123 10.6102 8.71875 12.3476 8.71875C13.621 8.70888 14.5193 8.35351 15.3781 7.50458C16.918 5.99426 17.1747 3.72386 16.0099 1.96676C15.0721 0.55516 13.5124 -0.165447 11.8047 0.0319796Z" fill="black"/>
<path d="M28.813 4.72111C28.3293 4.96789 28.1615 5.29364 28.1713 5.98464C28.1812 6.32026 28.428 10.1405 28.734 14.4839C29.0301 18.8272 29.2868 22.5586 29.2967 22.7758L29.3263 23.1706H27.9443H26.5722L25.6048 19.2221C23.1271 9.0941 23.2258 9.46922 22.9593 9.17308C22.2979 8.43273 20.985 8.94604 20.985 9.94304C20.985 10.0812 21.3009 11.4632 21.676 13.013C22.061 14.5727 22.367 15.9053 22.367 15.9744C22.367 16.0731 22.209 16.1126 21.755 16.1126C21.4095 16.1126 19.603 16.2015 17.7275 16.3101C15.8519 16.4186 14.2725 16.5075 14.2133 16.5075C14.1442 16.5075 14.233 16.0435 14.4403 15.2933C14.9734 13.3881 14.8352 12.3319 13.927 11.4237C13.7296 11.2362 13.4137 10.9993 13.2064 10.8907C13.009 10.792 11.5875 10.3675 10.0673 9.95291C7.04668 9.13359 6.41492 9.05462 5.61534 9.38037C5.01319 9.62716 4.39129 10.1898 4.12477 10.7229C3.81876 11.325 0.0775213 25.1646 0.00842202 25.9346C-0.0409346 26.4578 0.097264 27.1488 1.2226 31.8771L2.50587 37.2373L1.86423 42.094C1.14363 47.6219 1.11401 48.0661 1.41015 48.6387C1.85436 49.4777 2.5651 49.9121 3.51274 49.9121C4.53936 49.9121 5.37843 49.3297 5.67457 48.4116C5.80289 48.0069 7.16514 37.5828 7.16514 37.0398C7.16514 36.8523 6.67157 34.6707 6.08916 32.2029C5.49688 29.7351 5.02306 27.7016 5.03293 27.6818C5.05267 27.6621 10.0377 36.3883 10.3832 37.0497C10.4029 37.0793 10.166 39.3201 9.87975 42.0347C9.29734 47.3554 9.25786 48.0069 9.49477 48.5696C10.1265 50.0799 12.2785 50.4155 13.3347 49.1618C13.4927 48.9842 13.6703 48.6979 13.7493 48.5202C13.9369 48.0562 15.1708 36.5858 15.0721 36.1514C14.9635 35.6776 14.8055 35.3913 12.7326 31.7488C11.7356 30.0016 10.9162 28.511 10.9162 28.4419C10.9162 28.3629 11.0841 27.672 11.2914 26.902L11.6665 25.5003L11.0051 25.3917C9.66258 25.1646 8.47802 24.3354 8.0042 23.2891C7.7969 22.8449 6.12865 15.1452 6.20762 15.0564C6.22736 15.0465 7.01707 16.695 7.96471 18.7384C8.91236 20.7719 9.81065 22.5981 9.95872 22.7856C10.1167 22.9732 10.3733 23.1904 10.5313 23.2792C10.8077 23.4174 18.8034 24.7007 19.4155 24.7007C20.4125 24.7007 21.2811 23.7826 21.2811 22.7264C21.2811 22.0749 21.1035 21.6702 20.6198 21.2358C20.1361 20.8015 20.2052 20.8114 16.0987 20.2092C14.3613 19.9427 12.8905 19.686 12.8313 19.6268C12.6832 19.4787 9.6922 13.0525 9.77117 13.0525C9.79091 13.0525 10.6991 14.1384 11.8047 15.471C12.9991 16.9221 13.8776 17.9092 14.006 17.9388C14.1244 17.9684 15.5755 18.1955 17.2339 18.4423C18.8923 18.689 20.4618 18.9852 20.7382 19.0839C21.0047 19.1826 21.4687 19.4491 21.7648 19.6762L22.288 20.0809L22.7816 19.9131C23.058 19.8242 23.2949 19.765 23.3146 19.7848C23.3442 19.8242 24.1438 23.0818 24.1438 23.1805C24.1438 23.2002 23.9267 23.22 23.6503 23.22C23.2258 23.22 23.1567 23.2496 23.1567 23.4174C23.1567 23.7629 22.7717 24.6415 22.4163 25.0857L22.0708 25.52V28.511V31.502L19.7116 31.5316C17.4905 31.5613 17.3326 31.5711 17.0661 31.7686C16.918 31.8771 16.7305 32.1535 16.6515 32.3707C16.5232 32.7359 16.5232 32.7952 16.7008 33.1407C17.0562 33.8317 17.2734 33.881 19.8202 33.881H22.0708V39.8236C22.0708 43.5845 22.1103 45.9142 22.1696 46.1412C22.2288 46.3386 22.4065 46.615 22.5743 46.7532C22.8507 46.9901 22.9494 47.0099 23.8576 47.0099H24.8348V46.7236C24.8348 46.2202 25.2198 45.1738 25.6245 44.5618C26.4636 43.2983 27.8653 42.5678 29.4349 42.5678C31.6757 42.5678 33.6104 44.2558 33.8967 46.467L33.9658 46.9605L36.4139 46.9901C38.7139 47.0099 38.8521 47 38.8521 46.8322C38.8521 46.5163 39.1483 45.4996 39.3753 45.0455C39.6813 44.4335 40.55 43.5154 41.1521 43.1699C42.5539 42.3802 44.3208 42.3605 45.6535 43.1305C46.917 43.8609 47.7659 45.1146 47.993 46.5854L48.0621 47.0099H48.8419C50.3325 47.0099 50.5003 46.7532 50.5003 44.4532C50.5003 42.7553 50.4213 42.3704 49.9771 41.8867C49.5526 41.4326 49.0591 41.2845 47.9041 41.2845H46.838L47.0354 41.018C47.1835 40.8107 47.45 39.5077 48.1213 35.7072C48.6149 32.9334 49.0196 30.5445 49.0196 30.3964C49.0196 30.0115 48.8715 29.7647 48.526 29.587C48.2792 29.4587 47.5093 29.4389 43.2449 29.4389C37.7465 29.4389 37.8156 29.429 37.5688 30.0411C37.4504 30.3175 37.5294 30.8604 38.3585 35.4999C38.862 38.3231 39.3161 40.7317 39.3753 40.8403C39.4345 40.9489 39.5431 41.0871 39.6319 41.1562C39.7603 41.2549 39.4641 41.2746 38.1907 41.2845H36.5817L36.562 32.6471L36.5323 24.0097L36.1572 23.6444L35.792 23.2693L33.7388 23.22C31.7842 23.1706 31.6954 23.1608 31.6757 22.9732C31.6559 22.8646 31.3795 18.8963 31.0538 14.1482C30.6688 8.61041 30.4121 5.44172 30.3332 5.2739C30.0568 4.71124 29.346 4.45458 28.813 4.72111Z" fill="black"/>
<path d="M28.2304 44.4827C27.1939 44.9664 26.6115 45.8252 26.5326 46.9703C26.4931 47.5725 26.5227 47.76 26.73 48.2042C27.1939 49.2111 27.8751 49.7738 28.8523 49.9515C31.7051 50.4549 33.482 46.921 31.3399 44.996C30.4811 44.2261 29.2274 44.0188 28.2304 44.4827ZM30.0665 46.3879C30.491 46.7926 30.5107 47.4244 30.1159 47.8291C29.8197 48.1154 29.5433 48.1845 29.109 48.0759C28.3686 47.8883 28.1416 46.9703 28.6944 46.4274C29.0991 46.0128 29.642 46.0029 30.0665 46.3879Z" fill="black"/>
<path d="M42.3564 44.4433C41.7543 44.6802 41.1521 45.2528 40.8165 45.8944C40.5006 46.5262 40.4809 47.6318 40.7869 48.303C41.6259 50.1292 44.0839 50.5537 45.5153 49.1322C46.0779 48.5695 46.305 47.9871 46.305 47.1086C46.305 46.5163 46.2556 46.2695 46.068 45.8944C45.3573 44.5124 43.7878 43.9004 42.3564 44.4433ZM44.1135 46.3781C44.7848 47.0494 44.3702 48.1155 43.4423 48.1155C42.5144 48.1155 42.0998 47.0494 42.771 46.3781C42.9684 46.1807 43.1264 46.1215 43.4423 46.1215C43.7582 46.1215 43.9161 46.1807 44.1135 46.3781Z" fill="black"/>
</svg>
