<svg width="512" height="512" viewBox="0 0 512 512" fill="none" xmlns="http://www.w3.org/2000/svg">
<g clip-path="url(#clip0_28_97)">
<path d="M488.8 258.4C488.8 256.8 488.8 256 488 255.2L418.4 144.8C418.4 144 417.6 143.2 416.8 143.2C416 143.2 415.2 142.4 415.2 142.4H100.8C99.9999 142.4 99.1999 142.4 99.1999 143.2L98.3999 144V144.8L24 256C23.2 256.8 23.2 257.6 23.2 258.4V260C23.2 260.8 23.2 260.8 24 261.6L252.8 510.4L253.6 511.2H256C256.8 511.2 257.6 511.2 258.4 510.4H259.2C259.2 510.4 260 510.4 260 509.6L487.2 261.6C488 261.6 488.8 260.8 488.8 258.4ZM408 150.4L348 252L264 150.4H408ZM248 150.4L166.4 252L108 151.2H248V150.4ZM245.6 491.2L36 262.4H163.2L245.6 491.2ZM256 496.8L171.2 262.4H342.4L256 496.8ZM266.4 490.4L350.4 262.4H474.4L266.4 490.4Z" fill="#137DC5"/>
<path d="M35.2 58.4C37.6 58.4 39.2 60 39.2 62.4C39.2 64 37.6 66.4 36 66.4H4C1.6 66.4 0 64 0 62.4C0 60 1.6 58.4 3.2 58.4H35.2Z" fill="#59A52C"/>
<path d="M120.8 66.4H88.8C86.4 66.4 84.8 64 84.8 62.4C84.8 60 86.4 58.4 88.8 58.4H120.8C123.2 58.4 124.8 60 124.8 62.4C124.8 64.8 123.2 66.4 120.8 66.4Z" fill="#59A52C"/>
<path d="M65.6 36C65.6 37.6 64 39.2 62.4 39.2C60 39.2 58.4 37.6 58.4 36V4C58.4 1.6 60 0 62.4 0C64 0 65.6 1.6 65.6 4V36Z" fill="#59A52C"/>
<path d="M65.6 120C65.6 122.4 64 124 62.4 124C60 124 58.4 122.4 57.6 120V88C57.6 85.6 59.2 84 61.6 84C64 84 65.6 85.6 65.6 88V120Z" fill="#59A52C"/>
<path d="M391 443.6H423C425.4 443.6 427 446 427 447.6C427 450 425.4 451.6 423 451.6H391C388.6 451.6 387 450 387 447.6C387 445.2 388.6 443.6 391 443.6Z" fill="#59A52C"/>
<path d="M475.8 443.6H507.8C510.2 443.6 511.8 446 511.8 447.6C511.8 450 510.2 451.6 507.8 451.6H475.8C473.4 451.6 471.8 450 471.8 447.6C471.8 445.2 473.4 443.6 475.8 443.6Z" fill="#59A52C"/>
<path d="M445.4 390C445.4 387.6 447 386 449.4 386C451.8 386 453.4 387.6 453.4 390V422C453.4 424.4 451.8 426 449.4 426C447 426 445.4 424.4 445.4 422V390Z" fill="#59A52C"/>
<path d="M445.4 474.8C445.4 472.4 447 470.8 449.4 470.8C451.8 470.8 453.4 472.4 453.4 474.8V506.8C453.4 509.2 451.8 510.8 449.4 510.8C447 510.8 445.4 509.2 445.4 506.8V474.8Z" fill="#59A52C"/>
</g>
<defs>
<clipPath id="clip0_28_97">
<rect width="512" height="512" fill="white"/>
</clipPath>
</defs>
</svg>
