<svg width="50" height="50" viewBox="0 0 50 50" fill="none" xmlns="http://www.w3.org/2000/svg">
<g clip-path="url(#clip0_420_37)">
<path d="M49.7571 41.2544C49.7571 45.95 45.95 49.7571 41.2544 49.7571H8.50273C3.80656 49.7571 0 45.95 0 41.2544V8.5031C0 3.80693 3.80656 0 8.50273 0H41.2544C45.95 0 49.7571 3.80693 49.7571 8.5031V41.2544Z" fill="#3C5898"/>
<path d="M34.1407 49.7573V30.654H40.5528L41.5129 23.209H34.1407V18.4552C34.1407 16.3004 34.7385 14.8312 37.8298 14.8312L41.7724 14.8294V8.17072C41.0899 8.08001 38.7506 7.87744 36.0271 7.87744C30.344 7.87744 26.4521 11.3474 26.4521 17.7186V23.209H20.0237V30.654H26.4521V49.7573H34.1407Z" fill="white"/>
</g>
<defs>
<clipPath id="clip0_420_37">
<rect width="50" height="50" fill="white"/>
</clipPath>
</defs>
</svg>
