<svg width="323" height="696" viewBox="0 0 323 696" fill="none" xmlns="http://www.w3.org/2000/svg">
<path fill-rule="evenodd" clip-rule="evenodd" d="M-7.70407 14.1997C59.7779 14.0687 139.519 -22.7016 189.609 22.6181C240.299 68.4808 197.813 155.926 220.348 220.534C243.775 287.703 333.481 331.941 321.988 402.156C310.667 471.318 220.802 491.312 168.423 537.75C108.148 591.188 71.0674 710.959 -7.70407 694.452C-93.202 676.535 -80.2994 539.933 -137.376 473.668C-174.517 430.548 -251.083 433.271 -276.537 382.338C-302.934 329.517 -280.972 267.512 -269.343 209.597C-256.077 143.525 -258.386 63.6533 -204.463 23.3828C-150.495 -16.9219 -75.0084 14.3303 -7.70407 14.1997Z" fill="url(#paint0_linear_121_195)" fill-opacity="0.7"/>
<defs>
<linearGradient id="paint0_linear_121_195" x1="323.172" y1="637.756" x2="-19.7809" y2="28.1828" gradientUnits="userSpaceOnUse">
<stop stop-color="#78D73F"/>
<stop offset="1" stop-color="#D0FFB4"/>
</linearGradient>
</defs>
</svg>
