<svg width="318" height="437" viewBox="0 0 318 437" fill="none" xmlns="http://www.w3.org/2000/svg">
<g clip-path="url(#clip0_28_64)">
<path d="M124.035 132.666C126.14 129.696 127.351 129.335 127.343 129.318C127.408 129.336 128.622 129.691 130.726 132.666C131.211 133.352 131.827 133.935 132.538 134.383C133.249 134.831 134.041 135.134 134.869 135.275C135.697 135.416 136.544 135.392 137.363 135.205C138.182 135.018 138.956 134.672 139.641 134.185C141.024 133.204 141.96 131.712 142.245 130.039C142.53 128.367 142.139 126.649 141.159 125.264C137.05 119.459 132.414 116.516 127.382 116.516C122.347 116.516 117.711 119.459 113.601 125.264C112.621 126.65 112.231 128.369 112.516 130.042C112.802 131.716 113.739 133.208 115.123 134.189C116.201 134.956 117.491 135.368 118.813 135.366C119.836 135.368 120.844 135.124 121.753 134.654C122.662 134.184 123.444 133.502 124.035 132.666ZM179.621 134.189C181.005 135.171 182.722 135.562 184.394 135.276C186.066 134.99 187.556 134.051 188.536 132.666C190.64 129.696 191.853 129.335 191.843 129.318C191.906 129.336 193.119 129.695 195.227 132.666C195.817 133.502 196.6 134.184 197.508 134.654C198.417 135.125 199.425 135.369 200.448 135.366C201.62 135.365 202.77 135.041 203.771 134.43C204.771 133.819 205.585 132.945 206.123 131.902C206.66 130.859 206.901 129.688 206.819 128.518C206.737 127.347 206.335 126.222 205.657 125.264C201.551 119.459 196.912 116.519 191.88 116.519C186.848 116.519 182.209 119.459 178.103 125.264C177.122 126.649 176.731 128.368 177.016 130.041C177.301 131.715 178.237 133.207 179.62 134.189H179.621ZM131.252 163.359C129.711 164.07 128.516 165.365 127.929 166.958C127.342 168.551 127.411 170.312 128.121 171.854C133.774 184.12 146.142 192.045 159.629 192.045C173.121 192.045 185.485 184.12 191.137 171.854C191.5 171.09 191.708 170.26 191.749 169.414C191.79 168.568 191.663 167.722 191.375 166.926C191.087 166.129 190.644 165.398 190.072 164.774C189.499 164.15 188.809 163.646 188.041 163.291C187.272 162.937 186.441 162.738 185.596 162.707C184.75 162.676 183.907 162.814 183.115 163.111C182.323 163.409 181.598 163.861 180.981 164.442C180.365 165.022 179.87 165.719 179.525 166.493C175.958 174.238 168.148 179.243 159.629 179.243C151.114 179.243 143.304 174.235 139.734 166.493C139.382 165.729 138.884 165.043 138.268 164.472C137.651 163.902 136.929 163.458 136.141 163.167C135.353 162.876 134.516 162.743 133.677 162.776C132.838 162.809 132.014 163.007 131.252 163.359ZM103.76 356.855L89.9029 355.661L84.4884 342.835C82.6093 338.384 78.2767 335.51 73.4512 335.51C68.6258 335.51 64.2931 338.384 62.4149 342.835L56.9995 355.661L43.1396 356.855C40.7919 357.054 38.5551 357.942 36.71 359.409C34.865 360.876 33.494 362.856 32.7692 365.1C32.0393 367.342 31.9869 369.75 32.6184 372.021C33.25 374.293 34.5374 376.327 36.3192 377.869L46.8329 386.991L43.6818 400.554C43.145 402.851 43.2979 405.255 44.1216 407.466C44.9452 409.676 46.4027 411.594 48.3112 412.977C50.2155 414.365 52.4866 415.159 54.8398 415.26C57.193 415.361 59.5236 414.764 61.5394 413.544L73.4512 406.352L85.3639 413.544C87.3796 414.764 89.7102 415.361 92.0635 415.26C94.4168 415.16 96.6879 414.365 98.5921 412.977C100.5 411.594 101.958 409.676 102.782 407.466C103.605 405.256 103.758 402.851 103.221 400.554L100.07 386.992L110.584 377.87C112.366 376.328 113.653 374.293 114.284 372.021C114.915 369.749 114.862 367.342 114.131 365.1C113.406 362.856 112.035 360.876 110.19 359.409C108.345 357.942 106.108 357.054 103.76 356.855ZM91.3284 377.632C89.6769 379.059 88.4473 380.912 87.7728 382.989C87.0983 385.066 87.0047 387.289 87.5021 389.415L90.3326 401.595L79.6391 395.136C77.7726 394.006 75.6327 393.408 73.4512 393.408C71.2698 393.408 69.1299 394.006 67.2634 395.136L56.5699 401.595L59.4003 389.415C59.8979 387.289 59.8044 385.066 59.1301 382.989C58.4557 380.912 57.2262 379.06 55.5749 377.632L46.1372 369.444L58.5785 368.378C60.7521 368.193 62.8341 367.417 64.5991 366.133C66.3641 364.85 67.745 363.108 68.5925 361.095L73.4521 349.576L78.3133 361.095C79.1602 363.108 80.5406 364.85 82.3052 366.134C84.0698 367.417 86.1515 368.193 88.3248 368.378L100.766 369.448L91.3284 377.632ZM189.941 356.855L176.081 355.661L170.666 342.835C169.752 340.661 168.216 338.807 166.253 337.503C164.289 336.2 161.985 335.507 159.629 335.51C157.273 335.507 154.969 336.2 153.005 337.504C151.042 338.807 149.507 340.662 148.593 342.835L143.177 355.661L129.32 356.855C126.972 357.053 124.735 357.941 122.89 359.408C121.045 360.875 119.674 362.855 118.949 365.1C118.218 367.341 118.165 369.749 118.796 372.021C119.427 374.293 120.714 376.327 122.496 377.869L133.011 386.991L129.859 400.554C129.323 402.851 129.477 405.255 130.3 407.465C131.124 409.676 132.581 411.593 134.489 412.977C136.393 414.366 138.665 415.161 141.019 415.261C143.373 415.362 145.704 414.765 147.72 413.544L159.629 406.352L171.542 413.544C173.557 414.766 175.889 415.364 178.243 415.263C180.597 415.162 182.869 414.367 184.773 412.977C186.681 411.593 188.138 409.676 188.96 407.466C189.783 405.255 189.936 402.851 189.398 400.554L186.248 386.992L196.762 377.87C198.544 376.328 199.832 374.294 200.464 372.022C201.095 369.75 201.042 367.342 200.312 365.1C199.586 362.856 198.215 360.877 196.37 359.41C194.525 357.944 192.289 357.055 189.941 356.855ZM177.506 377.632C175.856 379.06 174.627 380.913 173.954 382.99C173.28 385.067 173.186 387.289 173.683 389.415L176.51 401.595L165.817 395.136C163.95 394.006 161.81 393.408 159.629 393.408C157.447 393.408 155.308 394.006 153.441 395.136L142.748 401.595L145.579 389.415C146.076 387.289 145.983 385.067 145.309 382.99C144.635 380.913 143.406 379.06 141.755 377.632L132.314 369.444L144.76 368.378C146.933 368.193 149.014 367.417 150.779 366.133C152.543 364.85 153.923 363.108 154.77 361.095L159.632 349.576L164.492 361.095C165.339 363.108 166.719 364.85 168.483 366.133C170.248 367.417 172.329 368.193 174.503 368.378L186.944 369.444L177.506 377.632ZM276.119 356.855L262.262 355.661L256.847 342.835C255.932 340.662 254.396 338.807 252.431 337.504C250.467 336.201 248.163 335.507 245.807 335.51C243.451 335.507 241.148 336.201 239.185 337.504C237.222 338.807 235.687 340.662 234.774 342.835L229.358 355.661L215.498 356.855C213.15 357.053 210.913 357.942 209.068 359.409C207.223 360.876 205.852 362.856 205.127 365.1C204.397 367.342 204.345 369.75 204.977 372.021C205.609 374.293 206.896 376.327 208.678 377.869L219.192 386.991L216.041 400.554C215.504 402.85 215.657 405.255 216.48 407.465C217.303 409.675 218.759 411.593 220.666 412.977C222.571 414.366 224.843 415.161 227.197 415.261C229.551 415.362 231.882 414.765 233.898 413.544L245.81 406.352L257.723 413.544C259.589 414.675 261.729 415.272 263.91 415.271C266.388 415.271 268.855 414.501 270.953 412.977C272.861 411.593 274.317 409.675 275.14 407.465C275.963 405.255 276.116 402.851 275.579 400.554L272.429 386.992L282.943 377.87C284.725 376.327 286.012 374.293 286.644 372.021C287.275 369.75 287.223 367.342 286.493 365.1C285.767 362.856 284.395 360.876 282.549 359.409C280.704 357.943 278.467 357.054 276.119 356.855ZM263.684 377.632C262.033 379.06 260.805 380.913 260.132 382.99C259.458 385.067 259.366 387.289 259.864 389.415L262.691 401.595L251.998 395.136C250.131 394.006 247.991 393.408 245.81 393.408C243.628 393.408 241.489 394.006 239.622 395.136L228.929 401.591L231.756 389.415C232.253 387.289 232.16 385.067 231.486 382.99C230.812 380.913 229.583 379.06 227.933 377.632L218.495 369.444L230.937 368.374C233.111 368.191 235.193 367.415 236.957 366.132C238.722 364.848 240.102 363.106 240.948 361.093L245.81 349.576L250.669 361.093C251.515 363.105 252.896 364.848 254.66 366.131C256.425 367.415 258.507 368.19 260.68 368.373L273.125 369.444L263.684 377.632Z" fill="#59A52C"/>
<path d="M261.243 313.942C260.721 304.241 258.3 294.738 254.116 285.972C253.755 285.213 253.248 284.533 252.624 283.97C252.001 283.407 251.272 282.972 250.481 282.691C249.689 282.41 248.85 282.288 248.012 282.331C247.173 282.375 246.351 282.584 245.593 282.946C242.407 284.462 241.054 288.284 242.569 291.477C245.911 298.477 247.896 306.048 248.418 313.789H70.8475C72.3523 292.241 84.9675 273.104 103.86 263.168C105.528 282.839 117.368 300.266 135.558 308.951C136.77 309.532 138.097 309.835 139.441 309.838C141.11 309.838 142.771 309.368 144.239 308.434C146.898 306.751 148.477 303.857 148.463 300.683C148.463 291.261 153.681 282.999 159.629 282.999C165.58 282.999 170.799 291.261 170.799 300.7C170.786 302.241 171.166 303.76 171.903 305.112C172.641 306.465 173.71 307.608 175.011 308.431C176.296 309.251 177.769 309.73 179.29 309.821C180.811 309.912 182.331 309.613 183.704 308.952C201.627 300.392 213.682 282.755 215.387 263.154C220.311 265.747 224.862 268.992 228.917 272.803C230.1 273.916 231.662 274.534 233.284 274.531C234.16 274.532 235.027 274.353 235.831 274.004C236.635 273.655 237.358 273.145 237.956 272.504C240.371 269.923 240.234 265.872 237.657 263.455C230.906 257.13 223.21 252.196 214.738 248.755C213.26 240.77 209.889 233.628 204.763 227.657C222.511 214.377 232.977 193.65 233.005 171.281H240.43C246.655 171.281 252.46 168.81 256.782 164.326C261.102 159.845 263.36 153.944 263.14 147.71C262.927 141.598 260.18 136.067 255.923 132.086C263.536 116.492 277.501 82.4648 266.247 61.9009C260.915 52.1623 251.658 48.4145 243.718 47.1034C234.343 28.0998 219.567 14.2898 200.797 7.04175C181.325 -0.476914 159.395 -0.243049 137.379 7.722C114.313 16.0669 91.7035 14.0295 70.1808 1.67396C66.5805 -0.396683 62.38 -0.553731 58.6578 1.2472C54.7019 3.16079 51.9337 7.02809 51.2474 11.5791C49.2294 24.9196 48.3768 41.3891 48.9029 56.7662C49.0265 60.2997 52.0061 63.0677 55.5135 62.9439C57.2083 62.8852 58.8105 62.155 59.9676 60.9139C61.1248 59.6728 61.7423 58.0225 61.6843 56.3257C60.9724 35.5579 62.9904 19.4579 63.8924 13.4901C63.9325 13.2298 64.0118 13.0463 64.0825 12.9327C88.943 27.1131 115.059 29.41 141.724 19.7643C180.772 5.63515 217.695 20.0511 233.597 55.6361C234.065 56.6823 234.804 57.5836 235.738 58.2457C236.673 58.9078 237.768 59.3065 238.909 59.4001C246.935 60.0633 252.207 62.8944 255.03 68.0514C262.078 80.9344 254.249 106.387 244.557 126.221C243.069 125.923 241.555 125.774 240.038 125.774H233.005V121.88C233.005 105.32 225.601 89.8563 212.703 79.4604C207.255 75.0537 199.522 74.5433 193.45 78.1904C183.26 84.3118 171.564 87.5458 159.628 87.5458C147.692 87.5458 136 84.3084 125.806 78.1912C119.738 74.5467 112.002 75.0571 106.563 79.451C93.6559 89.8563 86.2523 105.32 86.2523 121.88V125.774H79.2187C78.6288 125.774 78.0465 125.795 77.4667 125.841C70.9729 113.505 66.3972 98.3949 63.8396 80.8414C63.5767 79.1775 62.6694 77.6843 61.3144 76.6856C59.9593 75.6868 58.2656 75.2631 56.6005 75.5061C54.9354 75.7491 53.4331 76.6393 52.4192 77.9838C51.4054 79.3283 50.9616 81.0186 51.1843 82.6884C53.8553 101.013 58.6271 117.013 65.4048 130.358C59.9826 134.373 56.3593 140.654 56.1163 147.699C55.8938 153.937 58.1513 159.842 62.4738 164.326C66.7937 168.81 72.6021 171.281 78.8257 171.281H86.2489C86.2787 193.66 96.7557 214.394 114.516 227.673C109.371 233.575 105.971 240.732 104.499 248.768C77.7566 259.654 59.6297 285.085 58.0217 313.939C26.1184 316.189 0.851318 342.892 0.851318 375.392C0.851318 409.363 28.4561 436.999 62.3885 436.999H256.87C290.802 436.999 318.407 409.363 318.407 375.392C318.407 342.899 293.14 316.193 261.243 313.942ZM136.134 294.638C123.119 286.213 115.554 271.443 116.532 255.603C116.565 255.044 116.61 254.486 116.668 253.929C116.849 252.209 117.132 250.552 117.525 248.958C121.557 261.994 131.478 272.464 144.157 277.237C140.087 281.575 137.203 287.637 136.134 294.638ZM190.907 235.759C190.864 235.982 191.833 247.964 181.752 258.07C175.838 263.985 167.981 267.242 159.629 267.242C142.382 267.242 128.351 253.193 128.351 235.926V235.759C146.098 243.654 171.325 244.337 190.907 235.759ZM183.131 294.625C182.069 287.643 179.188 281.589 175.121 277.251C180.933 275.07 186.268 271.65 190.794 267.122C195.932 261.971 199.646 255.776 201.734 249.018C202.104 250.532 202.38 252.099 202.56 253.716C202.569 253.946 202.593 254.173 202.63 254.396C202.749 255.686 202.809 257.003 202.809 258.357C202.809 273.03 195.24 286.723 183.131 294.625ZM99.0414 171.187V164.88C99.0414 161.346 96.1769 158.482 92.6473 158.482H78.8257C76.1078 158.482 73.5672 157.398 71.6754 155.437C69.787 153.477 68.8023 150.893 68.8978 148.153C69.0811 142.872 73.7104 138.577 79.2187 138.577H92.6464C96.176 138.577 99.0406 135.71 99.0406 132.176V121.88C99.0406 109.218 104.705 97.3843 114.593 89.4167C115.898 88.3592 117.72 88.2628 119.229 89.1692C131.436 96.4894 145.399 100.353 159.628 100.349C173.857 100.354 187.821 96.4901 200.028 89.1701C201.537 88.2628 203.358 88.3592 204.674 89.4261C214.551 97.3852 220.22 109.218 220.22 121.88V132.176C220.22 133.873 220.893 135.502 222.093 136.702C223.292 137.903 224.918 138.577 226.614 138.577H240.038C245.546 138.577 250.175 142.872 250.358 148.153V148.159C250.455 150.893 249.469 153.477 247.581 155.437C246.657 156.403 245.547 157.17 244.318 157.693C243.089 158.215 241.767 158.483 240.431 158.478H226.61C223.081 158.478 220.216 161.346 220.216 164.88V171.187C220.216 203.315 194.184 228.901 162.568 228.901C155.325 228.877 141.095 229.828 125.426 219.685C108.905 208.989 99.0397 190.858 99.0397 171.188L99.0414 171.187ZM256.873 424.2H62.3885C35.5093 424.2 13.6396 402.309 13.6396 375.396C13.6396 348.487 35.5093 326.591 62.3885 326.591C62.4746 326.591 253.873 326.596 256.87 326.591C283.752 326.591 305.619 348.487 305.619 375.396C305.619 402.309 283.752 424.2 256.874 424.2H256.873Z" fill="#137DC5"/>
</g>
<defs>
<clipPath id="clip0_28_64">
<rect width="318" height="437" fill="white"/>
</clipPath>
</defs>
</svg>
