<svg width="512" height="512" viewBox="0 0 512 512" fill="none" xmlns="http://www.w3.org/2000/svg">
<g clip-path="url(#clip0_28_7)">
<path d="M85.3333 288.256C80.6684 283.995 74.5847 281.622 68.2667 281.6H25.6C18.8105 281.6 12.299 284.297 7.49807 289.098C2.69714 293.899 0 300.411 0 307.2L0 486.4C0 493.19 2.69714 499.701 7.49807 504.502C12.299 509.303 18.8105 512 25.6 512H68.2667C71.8467 511.989 75.3841 511.223 78.6483 509.753C81.9124 508.283 84.83 506.141 87.2107 503.467H301.227C313.749 503.472 326.03 500.03 336.725 493.517L496.64 396.169C500.383 393.911 503.621 390.907 506.151 387.343C508.682 383.779 510.451 379.732 511.348 375.454C512.246 371.177 512.252 366.76 511.368 362.479C510.483 358.199 508.726 354.147 506.206 350.575C506.031 350.277 505.834 349.991 505.617 349.722C501.589 344.373 495.986 340.421 489.596 338.421C483.206 336.421 476.35 336.472 469.99 338.569L443.733 347.307V238.934H469.333C470.857 238.934 472.352 238.526 473.665 237.753C474.977 236.98 476.059 235.869 476.797 234.537C477.535 233.205 477.904 231.699 477.864 230.176C477.824 228.653 477.377 227.169 476.57 225.877L429.551 150.699C428.971 149.717 428.201 148.86 427.286 148.18C426.37 147.5 425.328 147.01 424.22 146.738C423.112 146.467 421.961 146.42 420.835 146.601C419.709 146.781 418.63 147.185 417.663 147.788C416.695 148.391 415.858 149.182 415.2 150.114C414.543 151.046 414.078 152.1 413.834 153.214C413.59 154.328 413.572 155.48 413.779 156.602C413.987 157.723 414.417 158.791 415.044 159.744L453.973 221.867H218.061L143.36 102.4H273.067C275.33 102.4 277.5 101.501 279.101 99.9008C280.701 98.3005 281.6 96.13 281.6 93.8668C281.6 91.6036 280.701 89.4332 279.101 87.8329C277.5 86.2325 275.33 85.3335 273.067 85.3335H128C126.558 85.3434 125.141 85.7189 123.883 86.4247C122.625 87.1306 121.567 88.1438 120.806 89.3698H120.764L35.4304 225.903C34.6297 227.194 34.1883 228.676 34.1517 230.195C34.1152 231.714 34.4848 233.215 35.2224 234.543C35.96 235.871 37.0389 236.979 38.3476 237.75C39.6563 238.522 41.1473 238.931 42.6667 238.934H85.3333V288.256ZM68.2667 494.934H25.6C23.3368 494.934 21.1663 494.034 19.566 492.434C17.9657 490.834 17.0667 488.663 17.0667 486.4V307.2C17.0667 304.937 17.9657 302.767 19.566 301.166C21.1663 299.566 23.3368 298.667 25.6 298.667H68.2667C70.5299 298.667 72.7003 299.566 74.3006 301.166C75.901 302.767 76.8 304.937 76.8 307.2V486.4C76.8 488.663 75.901 490.834 74.3006 492.434C72.7003 494.034 70.5299 494.934 68.2667 494.934ZM475.307 354.731C478.166 353.786 481.245 353.727 484.139 354.563C487.032 355.399 489.605 357.091 491.52 359.416C491.648 359.629 491.785 359.825 491.93 360.03C493.179 361.682 494.066 363.578 494.533 365.595C495 367.613 495.038 369.706 494.642 371.738C494.247 373.771 493.428 375.698 492.239 377.393C491.05 379.088 489.517 380.513 487.74 381.577L327.851 478.942C319.828 483.823 310.617 486.403 301.227 486.4H93.8667V315.734H109.227C124.972 315.751 140.245 321.109 152.55 330.931C167.879 343.16 186.898 349.834 206.507 349.867H251.136C257.76 349.845 264.246 351.765 269.791 355.389C275.336 359.014 279.696 364.185 282.334 370.262C285.713 377.549 284.809 386.108 279.979 392.534H228.011C211.162 392.544 194.692 397.532 180.668 406.87L174.438 411.051C172.56 412.314 171.26 414.271 170.825 416.492C170.39 418.714 170.854 421.017 172.117 422.895C173.38 424.774 175.338 426.073 177.559 426.509C179.78 426.944 182.083 426.479 183.962 425.216L190.14 421.069C201.357 413.596 214.532 409.606 228.011 409.6H303.872C308.48 409.6 313.045 408.858 317.406 407.373L475.307 354.731ZM426.667 352.956L311.945 391.202C309.345 392.086 306.618 392.536 303.872 392.534H299.221C302.489 383.134 302.096 372.848 298.121 363.725C295.091 356.655 290.492 350.366 284.673 345.335C278.854 340.304 271.967 336.663 264.533 334.686V238.934H426.667V352.956ZM213.333 238.934H247.467V332.8H206.507C190.762 332.782 175.488 327.425 163.183 317.602C147.854 305.374 128.835 298.699 109.227 298.667H102.4V232.849L153.6 150.929L206.097 234.923C206.864 236.15 207.931 237.162 209.197 237.864C210.463 238.565 211.886 238.934 213.333 238.934ZM128 109.969L143.539 134.827L89.1392 221.867H58.0267L128 109.969Z" fill="#137DC5"/>
<path d="M383.923 7.55756e-07C381.702 -0.000933345 379.568 0.864063 377.975 2.41124C376.382 3.95841 375.454 6.06585 375.39 8.28587V8.53333C375.39 11.6736 374.613 85.3333 307.038 85.3333C304.775 85.3333 302.604 86.2324 301.004 87.8327C299.404 89.433 298.505 91.6035 298.505 93.8667C298.505 96.1299 299.404 98.3003 301.004 99.9006C302.604 101.501 304.775 102.4 307.038 102.4C374.349 102.4 375.373 176.077 375.39 179.2C375.359 181.463 376.229 183.646 377.808 185.268C379.386 186.89 381.545 187.818 383.808 187.849C386.071 187.879 388.254 187.009 389.876 185.431C391.498 183.852 392.426 181.694 392.457 179.43V179.2C392.457 176.06 393.233 102.4 460.8 102.4C463.063 102.4 465.234 101.501 466.834 99.9006C468.434 98.3003 469.333 96.1299 469.333 93.8667C469.333 91.6035 468.434 89.433 466.834 87.8327C465.234 86.2324 463.063 85.3333 460.8 85.3333C393.498 85.3333 392.465 11.6565 392.457 8.53333C392.457 6.27015 391.558 4.09967 389.957 2.49936C388.357 0.899046 386.186 7.55756e-07 383.923 7.55756e-07ZM421.905 93.8667C404.431 103.085 390.924 118.366 383.923 136.841C376.922 118.366 363.415 103.085 345.941 93.8667C363.415 84.6488 376.922 69.3671 383.923 50.8928C390.924 69.3671 404.431 84.6488 421.905 93.8667ZM401.067 273.067C398.803 273.067 396.633 273.966 395.033 275.566C393.432 277.166 392.533 279.337 392.533 281.6V326.647L347.17 341.769C345.02 342.484 343.242 344.024 342.228 346.05C341.213 348.076 341.045 350.422 341.76 352.572C342.475 354.722 344.015 356.5 346.041 357.514C348.067 358.529 350.413 358.697 352.563 357.982L403.763 340.915C405.466 340.348 406.946 339.259 407.994 337.802C409.042 336.345 409.604 334.595 409.6 332.8V281.6C409.6 279.337 408.701 277.166 407.101 275.566C405.5 273.966 403.33 273.067 401.067 273.067Z" fill="#59A52C"/>
</g>
<defs>
<clipPath id="clip0_28_7">
<rect width="512" height="512" fill="white"/>
</clipPath>
</defs>
</svg>
