<svg width="69" height="69" viewBox="0 0 69 69" fill="none" xmlns="http://www.w3.org/2000/svg">
<path fill-rule="evenodd" clip-rule="evenodd" d="M51.4977 17.5563C60.8703 26.9289 60.8703 42.1248 51.4977 51.4974C42.1252 60.8699 26.9292 60.87 17.5566 51.4974C8.18407 42.1249 8.18407 26.9288 17.5566 17.5563C26.9292 8.1837 42.1252 8.18379 51.4977 17.5563ZM50.0835 50.0832C58.675 41.4917 58.675 27.562 50.0835 18.9705C41.492 10.379 27.5623 10.379 18.9708 18.9705C10.3793 27.562 10.3793 41.4917 18.9708 50.0832C27.5623 58.6747 41.492 58.6747 50.0835 50.0832Z" fill="#2B3355" fill-opacity="0.3"/>
<path fill-rule="evenodd" clip-rule="evenodd" d="M40.1396 39.9627C39.749 40.3532 39.1159 40.3532 38.7254 39.9627L29.0026 30.24C28.6121 29.8495 28.6121 29.2163 29.0026 28.8258C29.3932 28.4353 30.0263 28.4353 30.4168 28.8258L40.1396 38.5485C40.5301 38.939 40.5301 39.5722 40.1396 39.9627Z" fill="#F99D34"/>
<path fill-rule="evenodd" clip-rule="evenodd" d="M40.1397 28.8258C40.5302 29.2163 40.5302 29.8494 40.1397 30.24L30.417 39.9627C30.0265 40.3532 29.3933 40.3532 29.0028 39.9627C28.6123 39.5722 28.6123 38.939 29.0028 38.5485L38.7255 28.8258C39.116 28.4352 39.7492 28.4352 40.1397 28.8258Z" fill="#F99D34"/>
</svg>
