<svg width="378" height="260" viewBox="0 0 378 260" fill="none" xmlns="http://www.w3.org/2000/svg">
<g clip-path="url(#clip0_2_2)">
<mask id="mask0_2_2" style="mask-type:luminance" maskUnits="userSpaceOnUse" x="0" y="0" width="378" height="260">
<path d="M378 0H0V260H378V0Z" fill="white"/>
</mask>
<g mask="url(#mask0_2_2)">
<path fill-rule="evenodd" clip-rule="evenodd" d="M11.8125 23.6364H366.188C369.32 23.6364 372.325 22.3912 374.54 20.1749C376.755 17.9586 378 14.9526 378 11.8182C378 8.68381 376.755 5.67781 374.54 3.46147C372.325 1.24513 369.32 0 366.188 0H11.8125C8.67963 0 5.67507 1.24513 3.4598 3.46147C1.24453 5.67781 0 8.68381 0 11.8182C0 14.9526 1.24453 17.9586 3.4598 20.1749C5.67507 22.3912 8.67963 23.6364 11.8125 23.6364ZM11.8125 260H366.188C369.32 260 372.325 258.755 374.54 256.539C376.755 254.322 378 251.316 378 248.182C378 245.047 376.755 242.041 374.54 239.825C372.325 237.609 369.32 236.364 366.188 236.364H11.8125C8.67963 236.364 5.67507 237.609 3.4598 239.825C1.24453 242.041 0 245.047 0 248.182C0 251.316 1.24453 254.322 3.4598 256.539C5.67507 258.755 8.67963 260 11.8125 260Z" fill="#137DC5"/>
<path d="M366.188 141.818H11.8125C8.67963 141.818 5.67507 140.573 3.4598 138.357C1.24453 136.14 0 133.134 0 130C0 126.866 1.24453 123.86 3.4598 121.643C5.67507 119.427 8.67963 118.182 11.8125 118.182H366.188C369.32 118.182 372.325 119.427 374.54 121.643C376.755 123.86 378 126.866 378 130C378 133.134 376.755 136.14 374.54 138.357C372.325 140.573 369.32 141.818 366.188 141.818Z" fill="#137DC5"/>
</g>
</g>
<defs>
<clipPath id="clip0_2_2">
<rect width="378" height="260" fill="white"/>
</clipPath>
</defs>
</svg>
