<svg width="50" height="50" viewBox="0 0 50 50" fill="none" xmlns="http://www.w3.org/2000/svg">
<g clip-path="url(#clip0_420_33)">
<path d="M25.0032 0C14.568 0 11.5161 0.010765 10.9229 0.0599767C8.78137 0.237984 7.44882 0.575161 5.99707 1.29796C4.87828 1.85352 3.99593 2.49749 3.12511 3.40022C1.53919 5.0465 0.578024 7.07186 0.230082 9.47938C0.0609165 10.6482 0.0117049 10.8865 0.00170873 16.8565C-0.00213592 18.8465 0.00170873 21.4655 0.00170873 24.9784C0.00170873 35.405 0.0132427 38.4539 0.0632233 39.0459C0.236233 41.1298 0.563028 42.4408 1.25507 43.8749C2.57763 46.62 5.10356 48.6808 8.07934 49.4497C9.1097 49.715 10.2477 49.861 11.7087 49.9303C12.3277 49.9571 18.6368 49.9763 24.9497 49.9763C31.2626 49.9763 37.5756 49.9686 38.1792 49.9379C39.8708 49.8584 40.8532 49.7265 41.9393 49.4457C43.4148 49.0673 44.7899 48.3715 45.9686 47.4066C47.1473 46.4418 48.1011 45.2312 48.7636 43.8595C49.4421 42.4601 49.7861 41.0991 49.942 39.124C49.9757 38.6934 49.9899 31.8281 49.9899 24.9718C49.9899 18.1145 49.9746 11.2618 49.9407 10.8312C49.7831 8.82426 49.439 7.47478 48.7385 6.04842C48.1637 4.88079 47.5255 4.00883 46.599 3.11726C44.9457 1.53786 42.9235 0.576699 40.5132 0.229142C39.3456 0.0603612 39.1131 0.0103806 33.1385 0H25.0032Z" fill="url(#paint0_radial_420_33)"/>
<path d="M25.0032 0C14.568 0 11.5161 0.010765 10.9229 0.0599767C8.78137 0.237984 7.44882 0.575161 5.99707 1.29796C4.87828 1.85352 3.99593 2.49749 3.12511 3.40022C1.53919 5.0465 0.578024 7.07186 0.230082 9.47938C0.0609165 10.6482 0.0117049 10.8865 0.00170873 16.8565C-0.00213592 18.8465 0.00170873 21.4655 0.00170873 24.9784C0.00170873 35.405 0.0132427 38.4539 0.0632233 39.0459C0.236233 41.1298 0.563028 42.4408 1.25507 43.8749C2.57763 46.62 5.10356 48.6808 8.07934 49.4497C9.1097 49.715 10.2477 49.861 11.7087 49.9303C12.3277 49.9571 18.6368 49.9763 24.9497 49.9763C31.2626 49.9763 37.5756 49.9686 38.1792 49.9379C39.8708 49.8584 40.8532 49.7265 41.9393 49.4457C43.4148 49.0673 44.7899 48.3715 45.9686 47.4066C47.1473 46.4418 48.1011 45.2312 48.7636 43.8595C49.4421 42.4601 49.7861 41.0991 49.942 39.124C49.9757 38.6934 49.9899 31.8281 49.9899 24.9718C49.9899 18.1145 49.9746 11.2618 49.9407 10.8312C49.7831 8.82426 49.439 7.47478 48.7385 6.04842C48.1637 4.88079 47.5255 4.00883 46.599 3.11726C44.9457 1.53786 42.9235 0.576699 40.5132 0.229142C39.3456 0.0603612 39.1131 0.0103806 33.1385 0H25.0032Z" fill="url(#paint1_radial_420_33)"/>
<path d="M24.9917 6.53613C19.9797 6.53613 19.3507 6.55806 17.3822 6.64763C15.4177 6.7376 14.0767 7.04864 12.9033 7.505C11.6895 7.97635 10.6599 8.60687 9.63416 9.63301C8.60763 10.6588 7.97711 11.6884 7.50422 12.9017C7.0467 14.0755 6.7353 15.4169 6.64686 17.3808C6.55921 19.3493 6.53613 19.9786 6.53613 24.9904C6.53613 30.0024 6.55844 30.6294 6.64763 32.598C6.73798 34.5625 7.04902 35.9035 7.505 37.077C7.97673 38.2908 8.60725 39.3202 9.63339 40.3461C10.6588 41.3726 11.6884 42.0046 12.9014 42.4761C14.0755 42.9324 15.4169 43.2434 17.3811 43.3333C19.3496 43.4229 19.9783 43.4449 24.9898 43.4449C30.002 43.4449 30.6291 43.4229 32.5975 43.3333C34.5622 43.2434 35.9048 42.9324 37.0789 42.4761C38.2922 42.0046 39.3203 41.3726 40.3456 40.3461C41.3721 39.3202 42.0027 38.2908 42.4756 37.0773C42.9292 35.9035 43.2408 34.5622 43.333 32.5983C43.4214 30.6299 43.4445 30.0024 43.4445 24.9904C43.4445 19.9786 43.4214 19.3496 43.333 17.3811C43.2408 15.4165 42.9292 14.0755 42.4756 12.9021C42.0027 11.6884 41.3721 10.6588 40.3456 9.63301C39.3191 8.6065 38.2926 7.97596 37.0777 7.505C35.9013 7.04864 34.5595 6.7376 32.5949 6.64763C30.6264 6.55806 29.9997 6.53613 24.9863 6.53613H24.9917ZM23.3362 9.86176C23.8275 9.86101 24.3758 9.86176 24.9917 9.86176C29.919 9.86176 30.5029 9.87946 32.4488 9.96788C34.248 10.0502 35.2247 10.3508 35.8751 10.6034C36.7363 10.9379 37.3504 11.3377 37.9958 11.9836C38.6417 12.6295 39.0415 13.2447 39.3769 14.1059C39.6294 14.7556 39.9305 15.7322 40.0124 17.5314C40.1008 19.4769 40.1199 20.0613 40.1199 24.9863C40.1199 29.9113 40.1008 30.4956 40.0124 32.4411C39.93 34.2404 39.6294 35.2169 39.3769 35.8666C39.0423 36.7278 38.6417 37.3411 37.9958 37.9867C37.3499 38.6326 36.7367 39.0324 35.8751 39.3668C35.2253 39.6206 34.248 39.9204 32.4488 40.0027C30.5034 40.0912 29.919 40.1105 24.9917 40.1105C20.0639 40.1105 19.4799 40.0912 17.5346 40.0027C15.7353 39.9198 14.7587 39.619 14.1078 39.3665C13.2466 39.0319 12.6315 38.6321 11.9855 37.9862C11.3397 37.3403 10.9398 36.7267 10.6046 35.8652C10.352 35.2154 10.0509 34.2389 9.96904 32.4395C9.88061 30.4941 9.86291 29.9097 9.86291 24.9816C9.86291 20.0535 9.88061 19.4723 9.96904 17.5269C10.0513 15.7276 10.352 14.751 10.6046 14.1005C10.939 13.2393 11.3397 12.6242 11.9855 11.9783C12.6315 11.3323 13.2466 10.9325 14.1078 10.5973C14.7583 10.3435 15.7353 10.0436 17.5346 9.96096C19.237 9.88407 19.8967 9.86101 23.3362 9.85716V9.86176ZM34.8425 12.926C34.4045 12.926 33.9762 13.0559 33.612 13.2992C33.2479 13.5426 32.9639 13.8885 32.7964 14.2932C32.6288 14.6979 32.5851 15.1432 32.6706 15.5728C32.7561 16.0024 32.9671 16.3971 33.2769 16.7067C33.5867 17.0163 33.9813 17.2272 34.4109 17.3125C34.8404 17.3979 35.2859 17.354 35.6904 17.1862C36.095 17.0185 36.4409 16.7346 36.6841 16.3702C36.9273 16.0059 37.0572 15.5777 37.057 15.1397C37.057 13.9171 36.065 12.9252 34.8425 12.9252V12.926ZM24.9917 15.5134C19.7579 15.5134 15.5146 19.7568 15.5146 24.9904C15.5146 30.2242 19.7579 34.4657 24.9917 34.4657C30.2255 34.4657 34.4676 30.2242 34.4676 24.9904C34.4676 19.7568 30.225 15.5134 24.9912 15.5134H24.9917ZM24.9917 18.839C28.3889 18.839 31.1431 21.593 31.1431 24.9904C31.1431 28.3876 28.3889 31.142 24.9917 31.142C21.5941 31.142 18.8401 28.3876 18.8401 24.9904C18.8401 21.593 21.5941 18.839 24.9917 18.839Z" fill="white"/>
</g>
<defs>
<radialGradient id="paint0_radial_420_33" cx="0" cy="0" r="1" gradientUnits="userSpaceOnUse" gradientTransform="translate(13.2786 53.8255) rotate(-90) scale(49.5303 46.0797)">
<stop stop-color="#FFDD55"/>
<stop offset="0.1" stop-color="#FFDD55"/>
<stop offset="0.5" stop-color="#FF543E"/>
<stop offset="1" stop-color="#C837AB"/>
</radialGradient>
<radialGradient id="paint1_radial_420_33" cx="0" cy="0" r="1" gradientUnits="userSpaceOnUse" gradientTransform="translate(-8.37358 3.60021) rotate(78.6776) scale(22.1404 91.2869)">
<stop stop-color="#3771C8"/>
<stop offset="0.128" stop-color="#3771C8"/>
<stop offset="1" stop-color="#6600FF" stop-opacity="0"/>
</radialGradient>
<clipPath id="clip0_420_33">
<rect width="50" height="50" fill="white"/>
</clipPath>
</defs>
</svg>
