<svg width="50" height="100" viewBox="0 0 50 100" fill="none" xmlns="http://www.w3.org/2000/svg">
<path d="M22.0588 63.2353C22.0588 60.8952 21.1292 58.6509 19.4744 56.9961C17.8198 55.3414 15.5754 54.4118 13.2353 54.4118C10.8952 54.4118 8.65085 55.3414 6.99611 56.9961C5.34138 58.6509 4.41176 60.8952 4.41176 63.2353C4.41176 65.5754 5.34138 67.8198 6.99611 69.4744C8.65085 71.1292 10.8952 72.0588 13.2353 72.0588C15.5754 72.0588 17.8198 71.1292 19.4744 69.4744C21.1292 67.8198 22.0588 65.5754 22.0588 63.2353ZM26.1397 66.1765C24.807 72.068 19.5313 76.4706 13.2353 76.4706C5.92831 76.4706 0 70.5423 0 63.2353C0 55.9283 5.92831 50 13.2353 50C19.5313 50 24.807 54.4026 26.1397 60.2941H32.739C33.5478 59.3934 34.7242 58.8235 36.0294 58.8235H45.5882C48.0239 58.8235 50 60.7996 50 63.2353C50 65.671 48.0239 67.6471 45.5882 67.6471H36.0294C34.7242 67.6471 33.5478 67.0772 32.739 66.1765H26.1397ZM13.2353 57.3529C14.7954 57.3529 16.2916 57.9727 17.3947 59.0758C18.4979 60.179 19.1176 61.6752 19.1176 63.2353C19.1176 64.7954 18.4979 66.2916 17.3947 67.3947C16.2916 68.4979 14.7954 69.1176 13.2353 69.1176C11.6752 69.1176 10.179 68.4979 9.07584 67.3947C7.97269 66.2916 7.35294 64.7954 7.35294 63.2353C7.35294 61.6752 7.97269 60.179 9.07584 59.0758C10.179 57.9727 11.6752 57.3529 13.2353 57.3529ZM36.7647 72.0588C37.9871 72.0588 38.9705 73.0423 38.9705 74.2647V75H47.7941C49.0166 75 50 75.9834 50 77.2058C50 78.4283 49.0166 79.4118 47.7941 79.4118H25.7353C24.5128 79.4118 23.5294 78.4283 23.5294 77.2058C23.5294 75.9834 24.5128 75 25.7353 75H34.5589V74.2647C34.5589 73.0423 35.5423 72.0588 36.7647 72.0588ZM26.4706 92.6471V82.3529H47.0588V92.6471C47.0588 95.0827 45.0827 97.0588 42.6471 97.0588H30.8824C28.4467 97.0588 26.4706 95.0827 26.4706 92.6471ZM4.41176 79.4118H11.7647H13.2353H16.1765C18.6121 79.4118 20.5882 81.3879 20.5882 83.8235C20.5882 86.2592 18.6121 88.2353 16.1765 88.2353H14.7059C14.7059 89.8621 13.3915 91.1765 11.7647 91.1765H5.88235C4.25551 91.1765 2.94118 89.8621 2.94118 88.2353V80.8824C2.94118 80.0735 3.60294 79.4118 4.41176 79.4118ZM16.1765 85.2941C16.9853 85.2941 17.6471 84.6324 17.6471 83.8235C17.6471 83.0147 16.9853 82.3529 16.1765 82.3529H14.7059V85.2941H16.1765ZM2.20588 92.6471H18.3823C19.6048 92.6471 20.5882 93.6305 20.5882 94.8529C20.5882 96.0754 19.6048 97.0588 18.3823 97.0588H2.20588C0.983454 97.0588 0 96.0754 0 94.8529C0 93.6305 0.983454 92.6471 2.20588 92.6471Z" fill="#1D1C1C" style="fill:#1D1C1C;fill:color(display-p3 0.1137 0.1098 0.1098);fill-opacity:1;"/>
<path d="M22.0588 13.2353C22.0588 10.8952 21.1292 8.65085 19.4744 6.99611C17.8198 5.34138 15.5754 4.41176 13.2353 4.41176C10.8952 4.41176 8.65085 5.34138 6.99611 6.99611C5.34138 8.65085 4.41176 10.8952 4.41176 13.2353C4.41176 15.5754 5.34138 17.8198 6.99611 19.4744C8.65085 21.1292 10.8952 22.0588 13.2353 22.0588C15.5754 22.0588 17.8198 21.1292 19.4744 19.4744C21.1292 17.8198 22.0588 15.5754 22.0588 13.2353ZM26.1397 16.1765C24.807 22.068 19.5313 26.4706 13.2353 26.4706C5.92831 26.4706 0 20.5423 0 13.2353C0 5.92831 5.92831 0 13.2353 0C19.5313 0 24.807 4.40257 26.1397 10.2941H32.739C33.5478 9.39338 34.7242 8.82353 36.0294 8.82353H45.5882C48.0239 8.82353 50 10.7996 50 13.2353C50 15.671 48.0239 17.6471 45.5882 17.6471H36.0294C34.7242 17.6471 33.5478 17.0772 32.739 16.1765H26.1397ZM13.2353 7.35294C14.7954 7.35294 16.2916 7.97269 17.3947 9.07584C18.4979 10.179 19.1176 11.6752 19.1176 13.2353C19.1176 14.7954 18.4979 16.2916 17.3947 17.3947C16.2916 18.4979 14.7954 19.1176 13.2353 19.1176C11.6752 19.1176 10.179 18.4979 9.07584 17.3947C7.97269 16.2916 7.35294 14.7954 7.35294 13.2353C7.35294 11.6752 7.97269 10.179 9.07584 9.07584C10.179 7.97269 11.6752 7.35294 13.2353 7.35294ZM36.7647 22.0588C37.9871 22.0588 38.9705 23.0423 38.9705 24.2647V25H47.7941C49.0166 25 50 25.9834 50 27.2058C50 28.4283 49.0166 29.4118 47.7941 29.4118H25.7353C24.5128 29.4118 23.5294 28.4283 23.5294 27.2058C23.5294 25.9834 24.5128 25 25.7353 25H34.5589V24.2647C34.5589 23.0423 35.5423 22.0588 36.7647 22.0588ZM26.4706 42.6471V32.3529H47.0588V42.6471C47.0588 45.0827 45.0827 47.0588 42.6471 47.0588H30.8824C28.4467 47.0588 26.4706 45.0827 26.4706 42.6471ZM4.41176 29.4118H11.7647H13.2353H16.1765C18.6121 29.4118 20.5882 31.3879 20.5882 33.8235C20.5882 36.2592 18.6121 38.2353 16.1765 38.2353H14.7059C14.7059 39.8621 13.3915 41.1765 11.7647 41.1765H5.88235C4.25551 41.1765 2.94118 39.8621 2.94118 38.2353V30.8824C2.94118 30.0735 3.60294 29.4118 4.41176 29.4118ZM16.1765 35.2941C16.9853 35.2941 17.6471 34.6324 17.6471 33.8235C17.6471 33.0147 16.9853 32.3529 16.1765 32.3529H14.7059V35.2941H16.1765ZM2.20588 42.6471H18.3823C19.6048 42.6471 20.5882 43.6305 20.5882 44.8529C20.5882 46.0754 19.6048 47.0588 18.3823 47.0588H2.20588C0.983454 47.0588 0 46.0754 0 44.8529C0 43.6305 0.983454 42.6471 2.20588 42.6471Z" fill="#59A52C" style="fill:#59A52C;fill:color(display-p3 0.3490 0.6471 0.1725);fill-opacity:1;"/>
</svg>
