<svg width="102" height="128" viewBox="0 0 102 128" fill="none" xmlns="http://www.w3.org/2000/svg">
<path d="M65.0729 100.996V102.706C65.0729 107.129 61.487 110.982 57.0638 110.982H9.00911C4.58595 110.982 1 114.568 1 118.991C1 123.414 4.58595 127 9.00911 127H101.114" stroke="#D0992E" stroke-width="2" stroke-miterlimit="10"/>
<path d="M72.8138 61.0864L62.674 70.2393C59.2853 73.0825 54.2337 72.6404 51.3905 69.252L31.3316 44.9777C28.4887 41.5891 28.9305 36.5374 32.3189 33.6942L42.4587 24.5414L21.8662 0.0001297L4.58068 14.5044C-13.4879 29.6656 57.5006 115.756 76.121 100.132L93.4065 85.6277L72.8138 61.0864Z" fill="white"/>
<path d="M53.0581 38.3755H61.0672" stroke="#D0992E" stroke-width="2" stroke-miterlimit="10"/>
<path d="M69.0802 38.3755H77.0893" stroke="#D0992E" stroke-width="2" stroke-miterlimit="10"/>
<path d="M85.0927 38.3755H93.1018" stroke="#D0992E" stroke-width="2" stroke-miterlimit="10"/>
</svg>
