<svg width="50" height="50" viewBox="0 0 50 50" fill="none" xmlns="http://www.w3.org/2000/svg">
<path d="M24.9792 0C11.1833 0 0 11.1833 0 24.9792C0 35.5667 6.57917 44.6125 15.8708 48.2521C15.6437 46.2792 15.4604 43.2354 15.9521 41.0771C16.4042 39.1229 18.8708 28.6583 18.8708 28.6583C18.8708 28.6583 18.1312 27.1583 18.1312 24.9583C18.1312 21.4833 20.1458 18.8937 22.6542 18.8937C24.7917 18.8937 25.8208 20.4979 25.8208 22.4104C25.8208 24.5479 24.4646 27.7562 23.7437 30.7375C23.1479 33.225 24.9979 35.2604 27.4437 35.2604C31.8854 35.2604 35.2979 30.5729 35.2979 23.8292C35.2979 17.8458 31.0021 13.6729 24.8542 13.6729C17.7417 13.6729 13.5667 18.9979 13.5667 24.5083C13.5667 26.6458 14.3896 28.95 15.4167 30.2042C15.625 30.4479 15.6458 30.675 15.5833 30.9208C15.3979 31.7021 14.9667 33.4083 14.8833 33.7583C14.7812 34.2104 14.5125 34.3125 14.0396 34.0875C10.9146 32.6271 8.96042 28.0833 8.96042 24.4042C8.96042 16.5292 14.675 9.29375 25.4687 9.29375C34.125 9.29375 40.8667 15.4625 40.8667 23.7271C40.8667 32.3417 35.4396 39.2708 27.9146 39.2708C25.3854 39.2708 23 37.9542 22.2 36.3917C22.2 36.3917 20.9458 41.1604 20.6375 42.3333C20.0833 44.5125 18.5604 47.2271 17.5333 48.8917C19.8792 49.6083 22.3479 50 24.9375 50C38.7333 50 49.9167 38.8167 49.9167 25.0208C49.9583 11.1833 38.775 0 24.9792 0Z" fill="#BD081C"/>
</svg>
