<svg width="512" height="512" viewBox="0 0 512 512" fill="none" xmlns="http://www.w3.org/2000/svg">
<path fill-rule="evenodd" clip-rule="evenodd" d="M330.912 391.659L361.077 421.825C363.078 423.824 365.79 424.948 368.619 424.948C371.447 424.948 374.16 423.824 376.16 421.825L436.491 361.494C438.434 359.482 439.509 356.788 439.485 353.991C439.46 351.194 438.338 348.519 436.361 346.541C434.383 344.564 431.708 343.442 428.911 343.417C426.114 343.393 423.42 344.468 421.408 346.411L368.619 399.201L345.995 376.577C343.983 374.634 341.288 373.559 338.492 373.583C335.695 373.607 333.02 374.729 331.042 376.707C329.064 378.684 327.942 381.36 327.918 384.156C327.894 386.953 328.969 389.648 330.912 391.659ZM138.667 204.801C138.667 198.582 136.192 192.609 131.797 188.203C127.392 183.808 121.423 181.338 115.2 181.334H98.1333C91.9146 181.334 85.9413 183.809 81.536 188.203C77.1405 192.609 74.6704 198.577 74.6666 204.801V221.867C74.6666 228.086 77.1413 234.059 81.536 238.465C85.9413 242.859 91.9146 245.334 98.1333 245.334H115.2C121.419 245.334 127.392 242.859 131.797 238.465C136.192 234.059 138.667 228.086 138.667 221.867V204.801ZM117.333 204.801V221.867C117.334 222.147 117.279 222.425 117.17 222.683C117.062 222.941 116.904 223.175 116.704 223.371C116.508 223.571 116.274 223.73 116.015 223.838C115.757 223.946 115.48 224.001 115.2 224.001H98.1333C97.8533 224.001 97.576 223.946 97.3178 223.838C97.0595 223.73 96.8254 223.571 96.6293 223.371C96.4295 223.175 96.2709 222.941 96.1628 222.683C96.0547 222.425 95.9994 222.147 96 221.867V204.801C96 204.235 96.224 203.691 96.6293 203.297C96.8254 203.097 97.0595 202.938 97.3178 202.83C97.576 202.722 97.8533 202.667 98.1333 202.667H115.2C115.765 202.667 116.309 202.891 116.704 203.297C116.904 203.493 117.062 203.727 117.17 203.985C117.279 204.243 117.334 204.521 117.333 204.801ZM138.667 290.134C138.667 283.915 136.192 277.942 131.797 273.537C127.392 269.141 121.423 266.671 115.2 266.667H98.1333C91.9146 266.667 85.9413 269.142 81.536 273.537C77.1405 277.942 74.6704 283.911 74.6666 290.134V307.201C74.6666 313.419 77.1413 319.393 81.536 323.798C85.9413 328.193 91.9146 330.667 98.1333 330.667H115.2C121.419 330.667 127.392 328.193 131.797 323.798C136.192 319.393 138.667 313.419 138.667 307.201V290.134ZM117.333 290.134V307.201C117.334 307.481 117.279 307.758 117.17 308.016C117.062 308.274 116.904 308.509 116.704 308.705C116.508 308.904 116.274 309.063 116.015 309.171C115.757 309.279 115.48 309.335 115.2 309.334H98.1333C97.8533 309.335 97.576 309.279 97.3178 309.171C97.0595 309.063 96.8254 308.904 96.6293 308.705C96.4295 308.509 96.2709 308.274 96.1628 308.016C96.0547 307.758 95.9994 307.481 96 307.201V290.134C96 289.569 96.224 289.025 96.6293 288.63C96.8254 288.43 97.0595 288.272 97.3178 288.164C97.576 288.055 97.8533 288 98.1333 288.001H115.2C115.765 288.001 116.309 288.225 116.704 288.63C116.904 288.826 117.062 289.06 117.17 289.318C117.279 289.577 117.334 289.854 117.333 290.134ZM138.667 375.467C138.667 369.249 136.192 363.275 131.797 358.87C127.392 354.475 121.423 352.004 115.2 352.001H98.1333C91.9146 352.001 85.9413 354.475 81.536 358.87C77.1405 363.276 74.6704 369.244 74.6666 375.467V392.534C74.6666 398.753 77.1413 404.726 81.536 409.131C85.9413 413.526 91.9146 416.001 98.1333 416.001H115.2C121.419 416.001 127.392 413.526 131.797 409.131C136.192 404.726 138.667 398.753 138.667 392.534V375.467ZM117.333 375.467V392.534C117.334 392.814 117.279 393.091 117.17 393.349C117.062 393.608 116.904 393.842 116.704 394.038C116.508 394.238 116.274 394.396 116.015 394.504C115.757 394.613 115.48 394.668 115.2 394.667H98.1333C97.8533 394.668 97.576 394.613 97.3178 394.504C97.0595 394.396 96.8254 394.238 96.6293 394.038C96.4295 393.842 96.2709 393.608 96.1628 393.349C96.0547 393.091 95.9994 392.814 96 392.534V375.467C96 374.902 96.224 374.358 96.6293 373.963C96.8254 373.763 97.0595 373.605 97.3178 373.497C97.576 373.389 97.8533 373.333 98.1333 373.334H115.2C115.765 373.334 116.309 373.558 116.704 373.963C116.904 374.159 117.062 374.394 117.17 374.652C117.279 374.91 117.334 375.187 117.333 375.467ZM224 204.801C224 198.582 221.525 192.609 217.131 188.203C212.725 183.808 206.757 181.338 200.533 181.334H183.467C177.248 181.334 171.275 183.809 166.869 188.203C162.474 192.609 160.004 198.577 160 204.801V221.867C160 228.086 162.475 234.059 166.869 238.465C171.275 242.859 177.248 245.334 183.467 245.334H200.533C206.752 245.334 212.725 242.859 217.131 238.465C221.525 234.059 224 228.086 224 221.867V204.801ZM202.667 204.801V221.867C202.667 222.147 202.612 222.425 202.504 222.683C202.396 222.941 202.237 223.175 202.037 223.371C201.841 223.571 201.607 223.73 201.349 223.838C201.091 223.946 200.813 224.001 200.533 224.001H183.467C183.187 224.001 182.909 223.946 182.651 223.838C182.393 223.73 182.159 223.571 181.963 223.371C181.763 223.175 181.604 222.941 181.496 222.683C181.388 222.425 181.333 222.147 181.333 221.867V204.801C181.333 204.235 181.557 203.691 181.963 203.297C182.159 203.097 182.393 202.938 182.651 202.83C182.909 202.722 183.187 202.667 183.467 202.667H200.533C201.099 202.667 201.643 202.891 202.037 203.297C202.237 203.493 202.396 203.727 202.504 203.985C202.612 204.243 202.667 204.521 202.667 204.801ZM224 290.134C224 283.915 221.525 277.942 217.131 273.537C212.725 269.141 206.757 266.671 200.533 266.667H183.467C177.248 266.667 171.275 269.142 166.869 273.537C162.474 277.942 160.004 283.911 160 290.134V307.201C160 313.419 162.475 319.393 166.869 323.798C171.275 328.193 177.248 330.667 183.467 330.667H200.533C206.752 330.667 212.725 328.193 217.131 323.798C221.525 319.393 224 313.419 224 307.201V290.134ZM202.667 290.134V307.201C202.667 307.481 202.612 307.758 202.504 308.016C202.396 308.274 202.237 308.509 202.037 308.705C201.841 308.904 201.607 309.063 201.349 309.171C201.091 309.279 200.813 309.335 200.533 309.334H183.467C183.187 309.335 182.909 309.279 182.651 309.171C182.393 309.063 182.159 308.904 181.963 308.705C181.763 308.509 181.604 308.274 181.496 308.016C181.388 307.758 181.333 307.481 181.333 307.201V290.134C181.333 289.569 181.557 289.025 181.963 288.63C182.159 288.43 182.393 288.272 182.651 288.164C182.909 288.055 183.187 288 183.467 288.001H200.533C201.099 288.001 201.643 288.225 202.037 288.63C202.237 288.826 202.396 289.06 202.504 289.318C202.612 289.577 202.667 289.854 202.667 290.134ZM224 375.467C224 369.249 221.525 363.275 217.131 358.87C212.725 354.475 206.757 352.004 200.533 352.001H183.467C177.248 352.001 171.275 354.475 166.869 358.87C162.474 363.276 160.004 369.244 160 375.467V392.534C160 398.753 162.475 404.726 166.869 409.131C171.275 413.526 177.248 416.001 183.467 416.001H200.533C206.752 416.001 212.725 413.526 217.131 409.131C221.525 404.726 224 398.753 224 392.534V375.467ZM202.667 375.467V392.534C202.667 392.814 202.612 393.091 202.504 393.349C202.396 393.608 202.237 393.842 202.037 394.038C201.841 394.238 201.607 394.396 201.349 394.504C201.091 394.613 200.813 394.668 200.533 394.667H183.467C183.187 394.668 182.909 394.613 182.651 394.504C182.393 394.396 182.159 394.238 181.963 394.038C181.763 393.842 181.604 393.608 181.496 393.349C181.388 393.091 181.333 392.814 181.333 392.534V375.467C181.333 374.902 181.557 374.358 181.963 373.963C182.159 373.763 182.393 373.605 182.651 373.497C182.909 373.389 183.187 373.333 183.467 373.334H200.533C201.099 373.334 201.643 373.558 202.037 373.963C202.237 374.159 202.396 374.394 202.504 374.652C202.612 374.91 202.667 375.187 202.667 375.467ZM309.333 204.801C309.333 198.582 306.859 192.609 302.464 188.203C298.058 183.808 292.09 181.338 285.867 181.334H268.8C262.581 181.334 256.608 183.809 252.203 188.203C247.807 192.609 245.337 198.577 245.333 204.801V221.867C245.333 228.086 247.808 234.059 252.203 238.465C256.608 242.859 262.581 245.334 268.8 245.334H285.867C292.085 245.334 298.059 242.859 302.464 238.465C306.859 234.059 309.333 228.086 309.333 221.867V204.801ZM288 204.801V221.867C288.001 222.147 287.945 222.425 287.837 222.683C287.729 222.941 287.57 223.175 287.371 223.371C287.175 223.571 286.94 223.73 286.682 223.838C286.424 223.946 286.147 224.001 285.867 224.001H268.8C268.52 224.001 268.243 223.946 267.984 223.838C267.726 223.73 267.492 223.571 267.296 223.371C267.096 223.175 266.938 222.941 266.829 222.683C266.721 222.425 266.666 222.147 266.667 221.867V204.801C266.667 204.235 266.891 203.691 267.296 203.297C267.492 203.097 267.726 202.938 267.984 202.83C268.243 202.722 268.52 202.667 268.8 202.667H285.867C286.432 202.667 286.976 202.891 287.371 203.297C287.57 203.493 287.729 203.727 287.837 203.985C287.945 204.243 288.001 204.521 288 204.801ZM394.667 204.801C394.667 198.582 392.192 192.609 387.797 188.203C383.392 183.808 377.423 181.338 371.2 181.334H354.133C347.915 181.334 341.941 183.809 337.536 188.203C333.141 192.609 330.67 198.577 330.667 204.801V221.867C330.667 228.086 333.141 234.059 337.536 238.465C341.941 242.859 347.915 245.334 354.133 245.334H371.2C377.419 245.334 383.392 242.859 387.797 238.465C392.192 234.059 394.667 228.086 394.667 221.867V204.801ZM373.333 204.801V221.867C373.334 222.147 373.279 222.425 373.17 222.683C373.062 222.941 372.904 223.175 372.704 223.371C372.508 223.571 372.274 223.73 372.015 223.838C371.757 223.946 371.48 224.001 371.2 224.001H354.133C353.853 224.001 353.576 223.946 353.318 223.838C353.06 223.73 352.825 223.571 352.629 223.371C352.429 223.175 352.271 222.941 352.163 222.683C352.055 222.425 351.999 222.147 352 221.867V204.801C352 204.235 352.224 203.691 352.629 203.297C352.825 203.097 353.06 202.938 353.318 202.83C353.576 202.722 353.853 202.667 354.133 202.667H371.2C371.765 202.667 372.309 202.891 372.704 203.297C372.904 203.493 373.062 203.727 373.17 203.985C373.279 204.243 373.334 204.521 373.333 204.801Z" fill="#59A52C"/>
<path fill-rule="evenodd" clip-rule="evenodd" d="M293.515 458.667H64C49.855 458.665 36.2893 453.048 26.2826 443.051C16.2853 433.044 10.6687 419.479 10.6666 405.334V106.667C10.6666 92.5221 16.2857 78.9566 26.2876 68.9546C36.2895 58.9527 49.8551 53.3337 64 53.3337H96V42.667C96 34.1801 99.3714 26.0407 105.373 20.0396C111.374 14.0384 119.513 10.667 128 10.667C136.487 10.667 144.626 14.0384 150.627 20.0396C156.629 26.0407 160 34.1801 160 42.667V53.3337H309.333V42.667C309.333 34.1801 312.705 26.0407 318.706 20.0396C324.707 14.0384 332.846 10.667 341.333 10.667C349.82 10.667 357.96 14.0384 363.961 20.0396C369.962 26.0407 373.333 34.1801 373.333 42.667V53.3337H405.333C419.478 53.3337 433.044 58.9527 443.046 68.9546C453.048 78.9566 458.667 92.5221 458.667 106.667V293.515C484.725 315.051 501.333 347.595 501.333 384C501.333 448.758 448.757 501.334 384 501.334C366.703 501.346 349.617 497.526 333.972 490.149C318.327 482.771 304.51 472.02 293.515 458.667ZM384 288C436.981 288 480 331.019 480 384C480 436.982 436.981 480 384 480C331.019 480 288 436.982 288 384C288 331.019 331.019 288 384 288ZM437.333 279.478V160H32V405.334C32 413.824 35.3706 421.963 41.376 427.958C44.3453 430.931 47.8721 433.29 51.7542 434.899C55.6363 436.508 59.7977 437.335 64 437.334H279.477C271.285 421.334 266.667 403.2 266.667 384C266.667 319.243 319.243 266.667 384 266.667C403.2 266.667 421.333 271.286 437.333 279.478ZM373.333 74.667V85.3337C373.333 93.8206 369.962 101.96 363.961 107.961C357.96 113.962 349.82 117.334 341.333 117.334C332.846 117.334 324.707 113.962 318.706 107.961C312.705 101.96 309.333 93.8206 309.333 85.3337V74.667H160V85.3337C160 93.8206 156.629 101.96 150.627 107.961C144.626 113.962 136.487 117.334 128 117.334C119.513 117.334 111.374 113.962 105.373 107.961C99.3714 101.96 96 93.8206 96 85.3337V74.667H64C55.513 74.667 47.3737 78.0384 41.3725 84.0396C35.3714 90.0407 32 98.1801 32 106.667V138.667H437.333V106.667C437.333 98.1801 433.962 90.0407 427.961 84.0396C421.96 78.0384 413.82 74.667 405.333 74.667H373.333ZM352 42.667V85.3337C352 88.1626 350.876 90.8757 348.876 92.8761C346.875 94.8765 344.162 96.0003 341.333 96.0003C338.504 96.0003 335.791 94.8765 333.791 92.8761C331.79 90.8757 330.667 88.1626 330.667 85.3337V42.667C330.667 39.838 331.79 37.1249 333.791 35.1245C335.791 33.1241 338.504 32.0003 341.333 32.0003C344.162 32.0003 346.875 33.1241 348.876 35.1245C350.876 37.1249 352 39.838 352 42.667ZM138.667 42.667V85.3337C138.667 88.1626 137.543 90.8757 135.542 92.8761C133.542 94.8765 130.829 96.0003 128 96.0003C125.171 96.0003 122.458 94.8765 120.457 92.8761C118.457 90.8757 117.333 88.1626 117.333 85.3337V42.667C117.333 39.838 118.457 37.1249 120.457 35.1245C122.458 33.1241 125.171 32.0003 128 32.0003C130.829 32.0003 133.542 33.1241 135.542 35.1245C137.543 37.1249 138.667 39.838 138.667 42.667Z" fill="#137DC5"/>
</svg>
