<svg width="512" height="512" viewBox="0 0 512 512" fill="none" xmlns="http://www.w3.org/2000/svg">
<g clip-path="url(#clip0_28_102)">
<path d="M437.019 74.981C388.667 26.629 324.379 0 255.999 0C187.619 0 123.333 26.629 74.981 74.981C26.629 123.333 0.00100708 187.62 0.00100708 256C0.00100708 324.38 26.629 388.667 74.981 437.019C123.333 485.371 187.62 512 255.999 512C324.378 512 388.666 485.371 437.019 437.019C485.371 388.667 511.999 324.38 511.999 256C511.999 187.62 485.371 123.333 437.019 74.981ZM255.999 482C131.383 482 30.001 380.617 30.001 256C30.001 131.383 131.383 30 255.999 30C380.616 30 481.999 131.383 481.999 256C481.999 380.617 380.616 482 255.999 482Z" fill="#137DC5"/>
<path d="M159.6 144.6C124.752 144.6 96.401 172.952 96.401 207.801C96.401 216.085 103.117 222.801 111.401 222.801C119.685 222.801 126.401 216.085 126.401 207.801C126.401 189.494 141.294 174.6 159.6 174.6C177.906 174.6 192.799 189.494 192.799 207.801C192.799 216.085 199.515 222.801 207.799 222.801C216.083 222.801 222.799 216.085 222.799 207.801C222.799 172.952 194.448 144.6 159.6 144.6ZM352.399 144.6C317.551 144.6 289.2 172.952 289.2 207.801C289.2 216.085 295.916 222.801 304.2 222.801C312.484 222.801 319.2 216.085 319.2 207.801C319.2 189.494 334.093 174.6 352.399 174.6C370.705 174.6 385.598 189.494 385.598 207.801C385.598 216.085 392.314 222.801 400.598 222.801C408.882 222.801 415.598 216.085 415.598 207.801C415.598 172.952 387.247 144.6 352.399 144.6ZM397.356 290.057C389.547 287.297 380.976 291.39 378.215 299.201C359.949 350.879 310.835 385.6 255.999 385.6C201.163 385.6 152.048 350.879 133.783 299.201C131.023 291.39 122.451 287.297 114.642 290.057C106.831 292.817 102.737 301.387 105.498 309.198C127.992 372.84 188.474 415.6 255.999 415.6C323.524 415.6 384.005 372.84 406.5 309.198C409.261 301.387 405.168 292.817 397.356 290.057Z" fill="#59A52C"/>
</g>
<defs>
<clipPath id="clip0_28_102">
<rect width="512" height="512" fill="white"/>
</clipPath>
</defs>
</svg>
