<svg width="50" height="50" viewBox="0 0 50 50" fill="none" xmlns="http://www.w3.org/2000/svg">
<path d="M14.2939 12.8311L32.7856 37.0081H35.6189L17.3377 12.8311H14.2939Z" fill="black"/>
<path d="M5 0C2.23858 0 0 2.23858 0 5V45C0 47.7614 2.23858 50 5 50H45C47.7614 50 50 47.7614 50 45V5C50 2.23858 47.7614 0 45 0H5ZM31.3812 40.0667L23.3187 29.5354L14.1062 40.0667H8.98542L20.9292 26.4125L8.33333 9.93333H18.8792L26.1583 19.5604L34.5812 9.93333H39.6958L28.5271 22.6958L41.6667 40.0646L31.3812 40.0667Z" fill="black"/>
</svg>
